# xmcd
# Track frame offsets:
# 150
# 13696
# 31874
# 56647
# 76338
# 108932
# 130359
# 150521
# 170105
# 184116
# 206580
# 233328
#
# Disc length: 3197 seconds
# Revision: 0
# Processed by: cddbd v1.5.1PL0 Copyright (c) Steve Scherf et al.
# Submitted via: VisiTrax 2.9.10.220 - For more info visit www.synapsa.com
#
DISCID=910c7b0c
DTITLE=niick Beccattini and Serious Fun - Unleaded
DYEAR=1998
DGENRE=
TTITLE0=Midas Queen
TTITLE1=Strange brew
TTITLE2=That's Alright
TTITLE3=Big Legged Woman
TTITLE4=Three O' Clock
TTITLE5=Backstroke
TTITLE6=Cadillac Assembly Line
TTITLE7=Early in the morning
TTITLE8=Thinking About Your Love
TTITLE9=Ain't No Love
TTITLE10=C.C. Rider
TTITLE11=Sergione
EXTD=
EXTT0=
EXTT1=
EXTT2=
EXTT3=
EXTT4=
EXTT5=
EXTT6=
EXTT7=
EXTT8=
EXTT9=
EXTT10=
EXTT11=
PLAYORDER=
